<?xml version="1.0" encoding="UTF-8" standalone="no"?>
<!-- Created with Inkscape (http://www.inkscape.org/) -->

<svg
   version="1.1"
   id="svg1"
   width="381"
   height="393"
   viewBox="0 0 381 393"
   sodipodi:docname="logo-dark.svg"
   inkscape:version="1.4.1 (93de688d07, 2025-03-30)"
   xmlns:inkscape="http://www.inkscape.org/namespaces/inkscape"
   xmlns:sodipodi="http://sodipodi.sourceforge.net/DTD/sodipodi-0.dtd"
   xmlns="http://www.w3.org/2000/svg"
   xmlns:svg="http://www.w3.org/2000/svg">
  <sodipodi:namedview
     id="namedview1"
     pagecolor="#505050"
     bordercolor="#eeeeee"
     borderopacity="1"
     inkscape:showpageshadow="0"
     inkscape:pageopacity="0"
     inkscape:pagecheckerboard="0"
     inkscape:deskcolor="#505050"
     inkscape:zoom="1.1155374"
     inkscape:cx="190.49115"
     inkscape:cy="195.86972"
     inkscape:window-width="1256"
     inkscape:window-height="776"
     inkscape:window-x="0"
     inkscape:window-y="0"
     inkscape:window-maximized="1"
     inkscape:current-layer="svg1" />
  <defs
     id="defs1">
    <filter
       style="color-interpolation-filters:sRGB;"
       inkscape:label="Invert"
       id="filter1"
       x="0"
       y="0"
       width="1"
       height="1">
      <feColorMatrix
         values="1 0 0 0 0 0 1 0 0 0 0 0 1 0 0 -0.21 -0.72 -0.07 2 0 "
         result="fbSourceGraphic"
         id="feColorMatrix1" />
      <feColorMatrix
         result="fbSourceGraphicAlpha"
         in="fbSourceGraphic"
         values="0 0 0 -1 0 0 0 0 -1 0 0 0 0 -1 0 0 0 0 1 0"
         id="feColorMatrix2" />
      <feColorMatrix
         id="feColorMatrix3"
         values="1 0 0 0 0 0 1 0 0 0 0 0 1 0 0 -0.21 -0.72 -0.07 2 0 "
         result="fbSourceGraphic"
         in="fbSourceGraphic" />
      <feColorMatrix
         result="fbSourceGraphicAlpha"
         in="fbSourceGraphic"
         values="0 0 0 -1 0 0 0 0 -1 0 0 0 0 -1 0 0 0 0 1 0"
         id="feColorMatrix4" />
      <feColorMatrix
         id="feColorMatrix5"
         values="1 0 0 0 0 0 1 0 0 0 0 0 1 0 0 -0.21 -0.72 -0.07 2 0 "
         result="fbSourceGraphic"
         in="fbSourceGraphic" />
      <feColorMatrix
         result="fbSourceGraphicAlpha"
         in="fbSourceGraphic"
         values="0 0 0 -1 0 0 0 0 -1 0 0 0 0 -1 0 0 0 0 1 0"
         id="feColorMatrix6" />
      <feColorMatrix
         id="feColorMatrix7"
         values="1 0 0 0 0 0 1 0 0 0 0 0 1 0 0 -0.21 -0.72 -0.07 2 0 "
         result="fbSourceGraphic"
         in="fbSourceGraphic" />
      <feColorMatrix
         result="fbSourceGraphicAlpha"
         in="fbSourceGraphic"
         values="0 0 0 -1 0 0 0 0 -1 0 0 0 0 -1 0 0 0 0 1 0"
         id="feColorMatrix8" />
      <feColorMatrix
         id="feColorMatrix9"
         values="1 0 0 0 0 0 1 0 0 0 0 0 1 0 0 -0.21 -0.72 -0.07 2 0 "
         result="fbSourceGraphic"
         in="fbSourceGraphic" />
      <feColorMatrix
         result="fbSourceGraphicAlpha"
         in="fbSourceGraphic"
         values="0 0 0 -1 0 0 0 0 -1 0 0 0 0 -1 0 0 0 0 1 0"
         id="feColorMatrix10" />
      <feColorMatrix
         id="feColorMatrix11"
         values="1 0 0 0 0 0 1 0 0 0 0 0 1 0 0 -0.21 -0.72 -0.07 2 0 "
         result="fbSourceGraphic"
         in="fbSourceGraphic" />
      <feColorMatrix
         result="fbSourceGraphicAlpha"
         in="fbSourceGraphic"
         values="0 0 0 -1 0 0 0 0 -1 0 0 0 0 -1 0 0 0 0 1 0"
         id="feColorMatrix12" />
      <feColorMatrix
         id="feColorMatrix13"
         type="hueRotate"
         values="180"
         result="color1"
         in="fbSourceGraphic" />
      <feColorMatrix
         id="feColorMatrix14"
         values="-1 0 0 0 1 0 -1 0 0 1 0 0 -1 0 1 -0.21 -0.72 -0.07 2 0 "
         result="color2" />
    </filter>
  </defs>
  <g
     id="g1"
     style="filter:url(#filter1)">
    <path
       style="fill:#ffffff;stroke-width:0.708108"
       d="m 37.647026,178.11742 -14.752974,-0.38228 -2.026865,-2.2703 c -3.26827,-3.6608 -3.926592,-7.00427 -2.874748,-14.6002 2.718215,-19.62969 6.783954,-33.34646 14.587425,-49.21427 21.870997,-44.473129 62.152949,-76.147768 109.584116,-86.168544 6.31199,-1.333536 10.46477,-1.760204 17.13213,-1.760204 8.13898,0 8.94165,0.121327 10.67683,1.613872 1.15247,0.991312 2.14305,2.835118 2.56791,4.779729 0.93131,4.262691 1.56294,107.998647 0.77718,127.640967 l -0.6171,15.42646 -2.27486,2.27624 -2.27485,2.27625 -19.99183,0.45394 c -23.21776,0.5272 -89.049004,0.48452 -110.512364,-0.0717 z"
       id="path2" />
    <path
       style="fill:#ffffff;stroke-width:0.708108"
       d="m 202.15738,176.31129 -3.179,-3.23917 v -70.24957 c 0,-77.580357 -0.19708,-74.172483 4.47295,-77.345854 3.29658,-2.240081 8.34134,-2.317984 20.66489,-0.319113 18.34081,2.974868 39.57842,11.0329 56.12369,21.294602 18.70019,11.598227 39.01052,31.507114 49.58957,48.609402 5.28724,8.547443 12.47919,23.030973 15.65123,31.519223 4.68638,12.54057 8.9274,32.34533 8.9274,41.68922 0,3.9558 -1.78597,7.36834 -4.85512,9.27692 l -2.58002,1.6044 -70.81829,0.19955 -70.8183,0.19956 z"
       id="path3" />
    <path
       style="fill:#ffffff;stroke-width:0.708108"
       d="m 207.12162,355.84793 c -7.68992,-0.69359 -9.51304,-1.58164 -11.44651,-5.57566 -1.49581,-3.08993 -1.52165,-3.50281 -0.69098,-11.0438 4.34939,-39.4848 26.74851,-79.93011 57.58007,-103.97036 6.63357,-5.17239 21.95011,-15.29463 28.90877,-19.10494 11.47366,-6.28256 35.96129,-13.40597 50.69389,-14.74677 10.88029,-0.9902 13.08351,-0.41039 16.53248,4.35077 l 2.16823,2.99315 v 69.65759 69.65759 l -1.84125,2.78232 c -3.83283,5.79178 2.39729,5.31315 -70.73983,5.43471 -35.83027,0.0596 -67.85446,-0.13602 -71.16487,-0.4346 z"
       id="path4" />
    <path
       style="fill:#f2f2f2;stroke-width:0.708108"
       d="m 151.53514,358.86265 c -6.04627,-0.82547 -19.39033,-4.24387 -27.57681,-7.06444 C 106.31102,345.71798 88.401668,335.61969 74.078726,323.67332 61.55253,313.22557 48.253121,297.76248 39.607168,283.59357 27.813912,264.26689 19.66563,239.90445 17.614872,217.83911 c -0.49808,-5.35916 0.10622,-7.01502 4.240363,-11.61921 l 2.399209,-2.672 70.721427,0.19362 c 78.123919,0.21388 72.424609,-0.13234 76.996449,4.67736 l 2.02638,2.13181 -0.30045,70.33547 c -0.33308,77.97645 -0.0826,74.07747 -4.94888,77.04434 -1.9368,1.18083 -3.45101,1.4111 -8.71694,1.32562 -3.50513,-0.0569 -7.32892,-0.23396 -8.49729,-0.39347 z"
       id="path5" />
    <path
       style="fill:#f2f2f2;stroke-width:0.708108"
       d="m 29.460646,177.45465 c -6.647999,-0.42731 -6.654444,-0.42958 -8.806953,-3.0939 -2.784486,-3.44657 -3.19361,-8.27951 -1.549986,-18.3098 2.776335,-16.94272 6.341859,-28.16791 13.837725,-43.56473 C 38.81559,100.42045 46.352283,88.584371 53.818455,79.699672 59.180262,73.319156 70.43111,62.210379 76.82973,56.978975 94.285083,42.70777 120.43561,30.3374 142.65304,25.841603 c 9.59049,-1.940678 23.85858,-2.201111 26.48024,-0.483338 3.70753,2.429273 3.6451,1.114215 3.6451,76.774215 v 70.26761 l -2.66699,2.66752 -2.667,2.66753 -65.66543,0.0736 c -36.115998,0.0405 -68.659237,-0.11886 -72.318314,-0.35405 z"
       id="path6" />
    <path
       style="fill:#f2f2f2;stroke-width:0.708108"
       d="m 202.48363,175.92904 -3.23277,-3.28213 0.26264,-70.39102 c 0.16373,-43.880074 0.52681,-71.173034 0.96404,-72.467391 1.56547,-4.634271 6.29019,-6.152303 16.20948,-5.208029 17.19178,1.636583 40.28257,9.214516 57.35082,18.821386 20.98308,11.810335 41.75332,31.079304 54.35097,50.422468 4.44707,6.828286 12.78925,23.127586 16.05452,31.367986 4.73522,11.95002 9.25667,32.13138 9.25667,41.31681 0,6.02652 -0.95539,8.29378 -4.4929,10.66224 -2.2295,1.49271 -2.38059,1.49638 -72.86241,1.76781 l -70.62828,0.272 z"
       id="path7" />
    <path
       style="fill:#f9f9f9;stroke-width:0.708108"
       d="m 204.06777,355.10181 c -7.38224,-1.27591 -9.37447,-4.41002 -8.75221,-13.76872 2.44131,-36.71696 26.02757,-80.66575 56.06282,-104.46306 8.97268,-7.10917 26.19275,-18.23487 33.95558,-21.93833 14.05964,-6.70752 35.58363,-12.46081 49.62394,-13.26431 8.35403,-0.47809 10.45838,0.26575 13.79931,4.87777 l 2.11036,2.91327 v 68.98374 68.98374 l -2.18673,3.1783 c -1.2027,1.74806 -3.03493,3.55734 -4.07162,4.02062 -2.24032,1.00116 -134.90358,1.45141 -140.54145,0.47698 z"
       id="path8" />
    <path
       style="fill:#f9f9f9;stroke-width:0.708108"
       d="M 143.54703,356.8732 C 101.17392,347.06781 68.548468,324.89913 43.666227,289.00517 31.056322,270.8147 19.760979,239.83874 18.317084,219.48853 c -0.498635,-7.02774 -0.09076,-8.40962 3.859265,-13.07502 l 2.098352,-2.47837 66.816701,0.24563 c 36.749188,0.1351 69.171758,0.50328 72.050138,0.81818 4.79043,0.52407 5.46452,0.80361 7.96327,3.30236 l 2.72982,2.72983 -0.63361,70.09524 c -0.34859,38.56342 -0.9266,71.05085 -1.2849,72.21957 -0.35822,1.16837 -1.71213,2.84128 -3.00869,3.71756 -2.10774,1.42451 -3.19,1.58801 -10.2189,1.54379 -5.62092,-0.0354 -9.93635,-0.5296 -15.1415,-1.7341 z"
       id="path9" />
    <path
       style="fill:#f9f9f9;stroke-width:0.708108"
       d="m 199.72222,353.68109 c -1.14872,-0.73504 -2.54204,-2.20189 -3.09627,-3.25966 -1.36749,-2.60996 -1.28592,-11.71028 0.17892,-19.95994 1.02627,-5.77974 5.27695,-21.94207 6.55205,-24.91284 0.25075,-0.58419 0.49471,-1.22149 0.54215,-1.41622 0.0474,-0.19473 0.48448,-1.07101 0.97121,-1.94729 0.48672,-0.87629 0.74861,-1.59325 0.58197,-1.59325 -0.65785,0 8.79804,-18.50287 12.58255,-24.62098 2.21052,-3.57357 4.01335,-6.65777 4.0063,-6.85379 -0.007,-0.19601 0.77561,-1.20712 1.73925,-2.24691 0.96365,-1.03979 1.75208,-2.32197 1.75208,-2.84929 0,-0.52731 0.23899,-0.96104 0.53108,-0.96382 0.2921,-0.003 2.44298,-2.41072 4.77973,-5.35097 5.05389,-6.3591 19.51002,-20.83724 20.81557,-20.84724 0.23522,-0.002 1.446,-0.95775 2.69062,-2.12433 1.24463,-1.16657 2.52248,-2.12105 2.83967,-2.12105 0.3172,0 1.43584,-0.79662 2.48588,-1.77027 1.05004,-0.97365 2.24171,-1.77027 2.64817,-1.77027 0.40646,0 0.73901,-0.24086 0.73901,-0.53525 0,-0.29439 0.89609,-0.9319 1.99132,-1.41669 1.09522,-0.48479 2.67514,-1.51852 3.51093,-2.29718 0.83579,-0.77866 1.72767,-1.41574 1.98197,-1.41574 0.7662,0 12.65673,-7.28422 13.2171,-8.09689 0.28614,-0.41496 0.52512,-0.52756 0.53108,-0.25024 0.006,0.27732 2.58398,-0.59713 5.72893,-1.94322 4.81314,-2.06011 18.21766,-6.5982 19.93773,-6.74991 0.2849,-0.0251 1.55949,-0.36226 2.83244,-0.74919 1.27295,-0.38693 3.11107,-0.85012 4.08472,-1.02932 0.97365,-0.17919 3.3449,-0.64842 5.26946,-1.04271 1.92455,-0.3943 6.62588,-1.03776 10.4474,-1.42992 9.88977,-1.01488 11.97344,-0.35989 16.67908,5.24298 l 1.59325,1.89703 v 68.74887 c 0,76.27359 0.35276,70.52043 -4.60271,75.06653 l -2.12432,1.94883 -71.16486,-0.002 c -68.53727,-0.002 -71.24199,-0.0511 -73.25346,-1.33814 z"
       id="path10" />
    <path
       style="fill:#f9f9f9;stroke-width:0.708108"
       d="m 217.6325,178.82937 -12.50263,-0.38613 -2.88544,-3.28005 -2.88543,-3.28006 0.42655,-67.1767 c 0.2346,-36.947184 0.54727,-67.309471 0.69482,-67.471746 0.14755,-0.162274 0.26828,-2.019015 0.26828,-4.126091 0,-3.29017 0.29223,-4.123273 2.06985,-5.900901 1.19167,-1.191662 2.82632,-2.069854 3.85281,-2.069854 0.98062,0 1.94868,-0.268159 2.15124,-0.595909 0.42049,-0.680372 1.92085,-0.588143 10.33691,0.635424 3.3104,0.481283 6.65622,0.946952 7.43513,1.034821 0.77892,0.08787 1.89419,0.358506 2.47838,0.601414 0.58419,0.242909 2.03252,0.543401 3.21852,0.667761 1.18599,0.12436 2.56145,0.476474 3.05657,0.782476 0.49512,0.306002 1.08868,0.367899 1.31903,0.13755 0.23035,-0.23035 0.76679,-0.133053 1.19208,0.216216 0.78275,0.642823 8.67443,3.19694 9.97867,3.229562 0.38946,0.0097 0.86743,0.19139 1.06216,0.403663 0.53406,0.582171 12.6048,5.123466 13.16378,4.952521 0.2673,-0.08174 0.68094,0.148995 0.91921,0.512747 0.48205,0.735903 9.69594,5.235229 10.43054,5.093438 0.25628,-0.04947 0.66092,0.195666 0.8992,0.544742 0.23827,0.349077 3.30105,2.488338 6.80619,4.753914 3.50513,2.265577 7.5679,5.061123 9.02838,6.212325 1.46047,1.151203 2.6554,1.954224 2.6554,1.784493 0,-0.169732 1.83223,1.391952 4.07162,3.470407 2.2394,2.078456 4.26676,3.783795 4.50526,3.789642 0.3646,0.0089 7.10411,6.801678 16.64358,16.775026 1.21381,1.269024 2.07331,2.440935 1.91,2.604246 -0.16331,0.163312 0.55944,0.970555 1.60613,1.793875 1.04667,0.823318 1.62109,1.507544 1.27648,1.520501 -0.34462,0.01296 0.12568,0.650254 1.04511,1.416216 0.91943,0.765962 1.4835,1.392659 1.25348,1.392659 -0.23001,0 1.17325,2.437849 3.11834,5.417444 5.5848,8.555048 14.64251,27.110448 17.70491,36.269818 3.8662,11.56345 7.83101,30.09504 7.82169,36.55868 -0.003,1.97719 -1.39985,6.8449 -2.2632,7.88593 -2.39904,2.89277 -4.09475,3.03294 -41.44798,3.4263 -70.62544,0.74374 -80.06748,0.78497 -92.41562,0.40363 z"
       id="path11" />
    <path
       style="fill:#f9f9f9;stroke-width:0.708108"
       d="m 88.808122,177.38108 c -63.66309,-0.3471 -64.969175,-0.38183 -66.501204,-1.7686 -0.859496,-0.778 -1.990283,-2.24136 -2.512859,-3.25191 -1.361928,-2.63368 -1.34256,-12.0304 0.03927,-19.05516 0.651187,-3.31041 1.272339,-6.65622 1.380338,-7.43514 0.107998,-0.77892 0.384303,-1.89419 0.61401,-2.47838 0.229707,-0.58419 0.936945,-3.13338 1.57164,-5.66486 2.51926,-10.04809 9.053777,-24.81135 16.704988,-37.741145 2.811978,-4.751965 5.03474,-8.748619 4.939469,-8.881451 -0.09527,-0.132832 0.269438,-0.610805 0.810463,-1.062162 1.523006,-1.27059 8.316028,-10.267481 8.316028,-11.014008 0,-0.365365 0.29223,-0.770516 0.6494,-0.900336 0.35717,-0.12982 5.701844,-5.192896 11.877053,-11.25128 6.175209,-6.058385 11.777979,-11.226424 12.4506,-11.484533 0.672621,-0.258109 1.222947,-0.797939 1.222947,-1.199621 0,-0.401683 0.276454,-0.730332 0.614343,-0.730332 0.791095,0 10.223401,-6.308085 10.794553,-7.219124 0.238279,-0.380063 0.657847,-0.624739 0.932395,-0.543724 0.82268,0.242766 7.485744,-3.60174 7.485744,-4.319184 0,-0.365152 0.25562,-0.584252 0.56803,-0.486887 0.88262,0.275064 7.92926,-3.173405 7.92926,-3.8804 0,-0.345871 0.28438,-0.453103 0.63195,-0.238294 0.34757,0.214809 2.49844,-0.442154 4.77973,-1.459919 9.95231,-4.440092 26.32915,-9.33109 33.18021,-9.909371 2.33675,-0.197241 5.36392,-0.590774 6.72702,-0.874518 2.99316,-0.623056 9.42219,-0.503423 12.53273,0.233213 3.46068,0.819554 4.55014,2.552674 5.22079,8.305202 0.33141,2.842775 0.61812,35.273058 0.63712,72.067294 l 0.0346,66.89861 -2.6626,2.61818 c -2.64203,2.59797 -2.71421,2.61998 -9.34605,2.85004 -3.6759,0.12752 -35.90577,0.0725 -71.621943,-0.1222 z"
       id="path12" />
    <path
       style="fill:none;stroke-width:0.708108"
       d="M 0.35405405,196.5 V 0.35405405 H 190.48108 380.60811 V 196.5 392.64595 H 190.48108 0.35405405 Z M 168.55827,358.94981 c 4.51392,-2.142 4.83793,-3.31245 5.37373,-19.41197 0.2657,-7.98392 0.51315,-40.34008 0.54987,-71.90257 l 0.0668,-57.38635 -3.00946,-2.94246 c -2.0616,-2.0157 -4.01308,-3.17182 -6.19595,-3.67066 -2.06308,-0.47148 -27.56601,-0.73431 -72.33843,-0.74551 l -69.151948,-0.0173 -3.229715,3.59222 c -4.305973,4.78928 -4.557499,6.57982 -2.654429,18.89614 2.943949,19.0527 7.054858,32.03071 15.25294,48.15307 23.553863,46.32107 66.651949,77.58267 118.667532,86.07663 4.87818,0.79659 14.41197,0.42985 16.66908,-0.64122 z m 176.86669,-3.32805 c 1.0616,-0.69559 2.87979,-2.57563 4.04045,-4.17786 l 2.11027,-2.91315 v -70.01164 -70.01164 l -1.84126,-2.78232 c -3.55768,-5.37602 -6.09025,-6.07087 -18.09991,-4.966 -14.221,1.30831 -37.36742,7.99127 -49.7019,14.3502 -7.13797,3.67993 -24.76546,15.30001 -31.61639,20.8416 -24.34617,19.69318 -43.9799,50.67208 -52.10334,82.2108 -2.69316,10.45602 -4.92804,25.85023 -4.26339,29.36694 0.62939,3.33009 2.97788,6.80177 5.20624,7.69619 3.99247,1.60247 16.28051,1.87603 79.51599,1.77015 60.9366,-0.10204 64.93879,-0.18437 66.75324,-1.37327 z m 3.78684,-176.98734 c 2.99287,-1.63764 5.05459,-4.38056 5.64061,-7.5043 1.1631,-6.19985 -2.71964,-27.48655 -7.62312,-41.79296 -3.43327,-10.01689 -11.78512,-27.202 -17.43108,-35.86689 C 317.39388,74.433265 295.23539,53.787667 275.04565,42.455984 256.03667,31.787007 232.04621,24.251696 213.79793,23.218307 c -6.53845,-0.370268 -7.43781,-0.265402 -9.98065,1.163754 -3.68716,2.072299 -4.40411,3.377721 -5.19388,9.456989 -0.7924,6.099459 -0.84741,131.55901 -0.0601,137.10281 0.46084,3.245 0.99248,4.247 3.48902,6.57574 l 2.94534,2.74739 70.98767,-0.20276 c 65.73108,-0.18776 71.15345,-0.29349 73.22649,-1.42781 z m -203.92862,0.26234 23.4886,-0.45352 1.83423,-1.72415 c 1.00883,-0.94828 2.21937,-3.0195 2.69009,-4.6027 1.2545,-4.21933 1.25511,-135.64985 6.6e-4,-141.654265 -1.39294,-6.667302 -2.07367,-7.052271 -12.95862,-7.328467 -10.97387,-0.278452 -20.73652,1.486092 -36.33901,6.568072 -45.04953,14.673342 -83.909085,53.37864 -99.562382,99.16716 -4.312863,12.61585 -8.458982,35.16525 -7.458278,40.56317 0.603284,3.25419 2.821711,6.96821 4.859143,8.13501 2.688045,1.53939 73.230638,2.29924 123.445567,1.32969 z"
       id="path13" />
    <path
       style="fill:none;stroke-width:0.708108"
       d="M 0.35405405,196.5 V 0.35405405 H 190.48108 380.60811 V 196.5 392.64595 H 190.48108 0.35405405 Z M 168.55827,358.94981 c 4.51392,-2.142 4.83793,-3.31245 5.37373,-19.41197 0.2657,-7.98392 0.51315,-40.34008 0.54987,-71.90257 l 0.0668,-57.38635 -3.00946,-2.94246 c -2.0616,-2.0157 -4.01308,-3.17182 -6.19595,-3.67066 -2.06308,-0.47148 -27.56601,-0.73431 -72.33843,-0.74551 l -69.151948,-0.0173 -3.229715,3.59222 c -4.305973,4.78928 -4.557499,6.57982 -2.654429,18.89614 2.943949,19.0527 7.054858,32.03071 15.25294,48.15307 23.553863,46.32107 66.651949,77.58267 118.667532,86.07663 4.87818,0.79659 14.41197,0.42985 16.66908,-0.64122 z m 176.86669,-3.32805 c 1.0616,-0.69559 2.87979,-2.57563 4.04045,-4.17786 l 2.11027,-2.91315 v -70.01164 -70.01164 l -1.84126,-2.78232 c -3.55768,-5.37602 -6.09025,-6.07087 -18.09991,-4.966 -14.221,1.30831 -37.36742,7.99127 -49.7019,14.3502 -7.13797,3.67993 -24.76546,15.30001 -31.61639,20.8416 -24.34617,19.69318 -43.9799,50.67208 -52.10334,82.2108 -2.69316,10.45602 -4.92804,25.85023 -4.26339,29.36694 0.62939,3.33009 2.97788,6.80177 5.20624,7.69619 3.99247,1.60247 16.28051,1.87603 79.51599,1.77015 60.9366,-0.10204 64.93879,-0.18437 66.75324,-1.37327 z m 3.78684,-176.98734 c 2.99287,-1.63764 5.05459,-4.38056 5.64061,-7.5043 1.1631,-6.19985 -2.71964,-27.48655 -7.62312,-41.79296 -3.43327,-10.01689 -11.78512,-27.202 -17.43108,-35.86689 C 317.39388,74.433265 295.23539,53.787667 275.04565,42.455984 256.03667,31.787007 232.04621,24.251696 213.79793,23.218307 c -6.53845,-0.370268 -7.43781,-0.265402 -9.98065,1.163754 -3.68716,2.072299 -4.40411,3.377721 -5.19388,9.456989 -0.7924,6.099459 -0.84741,131.55901 -0.0601,137.10281 0.46084,3.245 0.99248,4.247 3.48902,6.57574 l 2.94534,2.74739 70.98767,-0.20276 c 65.73108,-0.18776 71.15345,-0.29349 73.22649,-1.42781 z m -203.92862,0.26234 23.4886,-0.45352 1.83423,-1.72415 c 1.00883,-0.94828 2.21937,-3.0195 2.69009,-4.6027 1.2545,-4.21933 1.25511,-135.64985 6.6e-4,-141.654265 -1.39294,-6.667302 -2.07367,-7.052271 -12.95862,-7.328467 -10.97387,-0.278452 -20.73652,1.486092 -36.33901,6.568072 -45.04953,14.673342 -83.909085,53.37864 -99.562382,99.16716 -4.312863,12.61585 -8.458982,35.16525 -7.458278,40.56317 0.603284,3.25419 2.821711,6.96821 4.859143,8.13501 2.688045,1.53939 73.230638,2.29924 123.445567,1.32969 z"
       id="path14" />
    <path
       style="fill:none;stroke-width:0.708108"
       d="M 0.35405405,196.5 V 0.35405405 H 190.48108 380.60811 V 196.5 392.64595 H 190.48108 0.35405405 Z M 168.55827,358.94981 c 4.51392,-2.142 4.83793,-3.31245 5.37373,-19.41197 0.2657,-7.98392 0.51315,-40.34008 0.54987,-71.90257 l 0.0668,-57.38635 -3.00946,-2.94246 c -2.0616,-2.0157 -4.01308,-3.17182 -6.19595,-3.67066 -2.06308,-0.47148 -27.56601,-0.73431 -72.33843,-0.74551 l -69.151948,-0.0173 -3.229715,3.59222 c -4.305973,4.78928 -4.557499,6.57982 -2.654429,18.89614 2.943949,19.0527 7.054858,32.03071 15.25294,48.15307 23.553863,46.32107 66.651949,77.58267 118.667532,86.07663 4.87818,0.79659 14.41197,0.42985 16.66908,-0.64122 z m 176.86669,-3.32805 c 1.0616,-0.69559 2.87979,-2.57563 4.04045,-4.17786 l 2.11027,-2.91315 v -70.01164 -70.01164 l -1.84126,-2.78232 c -3.55768,-5.37602 -6.09025,-6.07087 -18.09991,-4.966 -14.221,1.30831 -37.36742,7.99127 -49.7019,14.3502 -7.13797,3.67993 -24.76546,15.30001 -31.61639,20.8416 -24.34617,19.69318 -43.9799,50.67208 -52.10334,82.2108 -2.69316,10.45602 -4.92804,25.85023 -4.26339,29.36694 0.62939,3.33009 2.97788,6.80177 5.20624,7.69619 3.99247,1.60247 16.28051,1.87603 79.51599,1.77015 60.9366,-0.10204 64.93879,-0.18437 66.75324,-1.37327 z m 3.78684,-176.98734 c 2.99287,-1.63764 5.05459,-4.38056 5.64061,-7.5043 1.1631,-6.19985 -2.71964,-27.48655 -7.62312,-41.79296 -3.43327,-10.01689 -11.78512,-27.202 -17.43108,-35.86689 C 317.39388,74.433265 295.23539,53.787667 275.04565,42.455984 256.03667,31.787007 232.04621,24.251696 213.79793,23.218307 c -6.53845,-0.370268 -7.43781,-0.265402 -9.98065,1.163754 -3.68716,2.072299 -4.40411,3.377721 -5.19388,9.456989 -0.7924,6.099459 -0.84741,131.55901 -0.0601,137.10281 0.46084,3.245 0.99248,4.247 3.48902,6.57574 l 2.94534,2.74739 70.98767,-0.20276 c 65.73108,-0.18776 71.15345,-0.29349 73.22649,-1.42781 z m -203.92862,0.26234 23.4886,-0.45352 1.83423,-1.72415 c 1.00883,-0.94828 2.21937,-3.0195 2.69009,-4.6027 1.2545,-4.21933 1.25511,-135.64985 6.6e-4,-141.654265 -1.39294,-6.667302 -2.07367,-7.052271 -12.95862,-7.328467 -10.97387,-0.278452 -20.73652,1.486092 -36.33901,6.568072 -45.04953,14.673342 -83.909085,53.37864 -99.562382,99.16716 -4.312863,12.61585 -8.458982,35.16525 -7.458278,40.56317 0.603284,3.25419 2.821711,6.96821 4.859143,8.13501 2.688045,1.53939 73.230638,2.29924 123.445567,1.32969 z"
       id="path15" />
    <path
       style="fill:none;stroke-width:0.708108"
       d="m 199.81288,353.72592 c -3.38679,-2.15554 -4.16505,-3.92893 -4.30768,-9.81574 -0.23798,-9.82162 5.61646,-36.00713 9.3287,-41.72504 0.56891,-0.87629 0.83613,-1.59325 0.59382,-1.59325 -0.596,0 7.92323,-16.92935 11.92767,-23.70256 1.77116,-2.99579 3.22029,-5.73921 3.22029,-6.09649 0,-0.35728 0.31864,-0.6496 0.7081,-0.6496 0.38946,0 0.70811,-0.45142 0.70811,-1.00315 0,-0.55173 0.27036,-1.10937 0.60079,-1.23919 0.33044,-0.12982 1.36605,-1.39308 2.30135,-2.80726 4.46801,-6.75555 21.40881,-24.83878 26.13029,-27.89243 1.36311,-0.8816 3.18202,-2.27448 4.04202,-3.0953 0.86,-0.82082 1.84006,-1.4924 2.17792,-1.4924 0.33785,0 1.36267,-0.79662 2.27736,-1.77027 0.9147,-0.97365 2.08551,-1.77027 2.60181,-1.77027 0.5163,0 0.93873,-0.26855 0.93873,-0.59678 0,-0.32823 1.43392,-1.33427 3.18649,-2.23565 1.75257,-0.90138 3.18649,-1.90742 3.18649,-2.23565 0,-0.32823 0.31303,-0.59678 0.69563,-0.59678 0.62146,0 7.34169,-3.88069 12.05031,-6.95862 0.97365,-0.63645 2.88554,-1.58904 4.24865,-2.11685 5.82551,-2.25573 24.07568,-8.50221 24.07568,-8.24038 0,0.15741 0.87628,-0.048 1.94729,-0.45647 2.41314,-0.92034 15.1987,-3.20735 21.52393,-3.85007 7.41421,-0.75339 10.09287,-0.013 13.74617,3.79957 l 3.14477,3.28186 v 68.82979 c 0,40.40227 -0.27025,69.5406 -0.65434,70.55083 -0.35989,0.94657 -1.87347,2.87833 -3.36352,4.2928 l -2.70917,2.57177 -71.16486,-0.0574 c -67.19674,-0.0542 -71.27627,-0.12831 -73.1628,-1.329 z"
       id="path16" />
    <path
       style="fill:none;stroke-width:0.708108"
       d="m 199.81288,353.72592 c -3.38679,-2.15554 -4.16505,-3.92893 -4.30768,-9.81574 -0.23798,-9.82162 5.61646,-36.00713 9.3287,-41.72504 0.56891,-0.87629 0.83613,-1.59325 0.59382,-1.59325 -0.596,0 7.92323,-16.92935 11.92767,-23.70256 1.77116,-2.99579 3.22029,-5.73921 3.22029,-6.09649 0,-0.35728 0.31864,-0.6496 0.7081,-0.6496 0.38946,0 0.70811,-0.45142 0.70811,-1.00315 0,-0.55173 0.27036,-1.10937 0.60079,-1.23919 0.33044,-0.12982 1.36605,-1.39308 2.30135,-2.80726 4.46801,-6.75555 21.40881,-24.83878 26.13029,-27.89243 1.36311,-0.8816 3.18202,-2.27448 4.04202,-3.0953 0.86,-0.82082 1.84006,-1.4924 2.17792,-1.4924 0.33785,0 1.36267,-0.79662 2.27736,-1.77027 0.9147,-0.97365 2.08551,-1.77027 2.60181,-1.77027 0.5163,0 0.93873,-0.26855 0.93873,-0.59678 0,-0.32823 1.43392,-1.33427 3.18649,-2.23565 1.75257,-0.90138 3.18649,-1.90742 3.18649,-2.23565 0,-0.32823 0.31303,-0.59678 0.69563,-0.59678 0.62146,0 7.34169,-3.88069 12.05031,-6.95862 0.97365,-0.63645 2.88554,-1.58904 4.24865,-2.11685 5.82551,-2.25573 24.07568,-8.50221 24.07568,-8.24038 0,0.15741 0.87628,-0.048 1.94729,-0.45647 2.41314,-0.92034 15.1987,-3.20735 21.52393,-3.85007 7.41421,-0.75339 10.09287,-0.013 13.74617,3.79957 l 3.14477,3.28186 v 68.82979 c 0,40.40227 -0.27025,69.5406 -0.65434,70.55083 -0.35989,0.94657 -1.87347,2.87833 -3.36352,4.2928 l -2.70917,2.57177 -71.16486,-0.0574 c -67.19674,-0.0542 -71.27627,-0.12831 -73.1628,-1.329 z"
       id="path17" />
  </g>
</svg>
